<?xml version="1.0" ?><!DOCTYPE svg  PUBLIC '-//W3C//DTD SVG 1.1//EN'  'http://www.w3.org/Graphics/SVG/1.1/DTD/svg11.dtd'><svg height="100%" style="fill-rule:evenodd;clip-rule:evenodd;stroke-linejoin:round;stroke-miterlimit:1.41421;" version="1.1" viewBox="0 0 24 24" width="100%" xml:space="preserve" xmlns="http://www.w3.org/2000/svg" xmlns:serif="http://www.serif.com/" xmlns:xlink="http://www.w3.org/1999/xlink"><rect height="24" id="Artboard8" style="fill:none;" width="24" x="0" y="0"/><g><rect height="20" style="fill:#0056ff;" width="20" x="2" y="2"/><path d="M15.594,16.415l0,0c-0.808,0 -1.583,-0.321 -2.155,-0.893c-0.571,-0.571 -0.892,-1.346 -0.892,-2.154c0,-0.13 0,-0.261 0,-0.391c0,-0.808 0.321,-1.583 0.892,-2.154c0.572,-0.572 1.347,-0.893 2.155,-0.893l0,0c0.808,0 1.583,0.321 2.154,0.893c0.572,0.571 0.893,1.346 0.893,2.154c0,0.13 0,0.261 0,0.391c0,0.078 -0.003,0.157 -0.009,0.234l-4.444,0l0,0.078c0,0.777 0.629,1.407 1.406,1.407c0,0 0,0 0,0c0.52,0 0.975,-0.283 1.218,-0.704l1.654,0c-0.15,0.425 -0.393,0.815 -0.718,1.139c-0.571,0.572 -1.346,0.893 -2.154,0.893Zm-10.235,-8.828c0,0 2.315,-0.001 4.162,-0.002c0.595,0 1.166,0.236 1.587,0.657c0.421,0.421 0.658,0.992 0.658,1.588c0,0 0,0 0,0c0,0.892 -0.569,1.651 -1.363,1.935c0.402,0.078 0.776,0.274 1.07,0.568c0.387,0.388 0.605,0.913 0.605,1.462c0,0 0,0 0,0c0,0.653 -0.259,1.28 -0.721,1.742c-0.462,0.462 -1.089,0.721 -1.742,0.721c-1.918,0 -4.256,0 -4.256,0l0,-8.671Zm5,6.093c0,-0.31 -0.123,-0.609 -0.343,-0.828c-0.22,-0.22 -0.518,-0.344 -0.829,-0.344c-0.942,0 -2.109,0 -2.109,0l0,2.344c0,0 1.167,0 2.109,0c0.311,0 0.609,-0.123 0.829,-0.343c0.22,-0.22 0.343,-0.518 0.343,-0.829c0,0 0,0 0,0Zm6.635,-1.146c-0.066,-0.715 -0.668,-1.276 -1.4,-1.276c0,0 0,0 0,0c-0.733,0 -1.335,0.561 -1.401,1.276l2.801,0Zm-6.869,-2.447c0,-0.604 -0.49,-1.094 -1.094,-1.094c-0.874,0 -1.953,0 -1.953,0l0,2.187c0,0 1.079,0 1.953,0c0.604,0 1.094,-0.489 1.094,-1.093c0,0 0,0 0,0Zm7.587,-2.029l0,1.017l-4.208,0l0,-1.017l4.208,0Z" style="fill:#fff;"/></g></svg>