<?xml version="1.0" standalone="no"?>
<!DOCTYPE svg PUBLIC "-//W3C//DTD SVG 20010904//EN"
 "http://www.w3.org/TR/2001/REC-SVG-20010904/DTD/svg10.dtd">
<svg version="1.0" xmlns="http://www.w3.org/2000/svg"
 width="120.000000pt" height="160.000000pt" viewBox="0 0 120.000000 160.000000"
 preserveAspectRatio="xMidYMid meet">

<g transform="translate(0.000000,160.000000) scale(0.100000,-0.100000)"
fill="#000000" stroke="none">
<path d="M550 1356 c-20 -6 -61 -36 -97 -71 -50 -49 -64 -70 -78 -118 -12 -41
-14 -70 -9 -100 11 -58 11 -62 -6 -62 -35 0 -22 -105 18 -142 26 -24 27 -30
27 -118 -1 -52 -4 -97 -8 -102 -4 -4 -41 -6 -81 -4 -41 1 -77 -2 -80 -7 -3 -5
0 -9 7 -10 46 -6 76 -16 71 -23 -6 -10 43 9 64 24 8 6 12 5 12 -4 0 -8 -16
-22 -36 -31 -38 -19 -69 -24 -59 -9 7 13 -23 21 -79 23 -55 1 -75 -18 -76 -69
0 -31 -9 -41 -23 -26 -4 3 -2 12 4 19 6 7 9 23 6 36 -4 21 -4 20 -6 -4 -1 -18
-10 -34 -27 -45 -14 -9 -30 -27 -35 -41 -8 -19 -14 -23 -34 -18 l-25 6 0 -230
0 -230 65 0 c58 0 65 2 65 19 0 11 5 23 10 26 6 4 10 -5 10 -19 l0 -26 526 0
526 0 -4 203 c-2 111 -8 210 -12 220 -5 11 -20 17 -40 17 -43 1 -62 19 -61 60
0 32 -3 36 -40 48 -22 8 -69 15 -105 17 -79 3 -144 35 -135 66 4 11 2 19 -4
19 -6 0 -11 15 -11 33 l0 32 -23 -29 c-29 -36 -45 -20 -22 23 17 34 20 87 5
96 -6 3 -13 -1 -16 -10 -7 -18 -42 -11 -59 12 -5 7 -25 15 -44 18 -41 5 -53
15 -20 16 13 1 28 1 32 0 5 -1 6 3 2 9 -3 5 -21 10 -38 11 -27 0 -29 2 -12 9
11 5 35 9 53 9 26 1 33 5 30 19 -2 12 -16 18 -52 22 -47 5 -49 6 -32 22 9 10
16 23 15 30 -1 7 -1 28 0 46 1 26 5 33 18 30 10 -2 23 -14 30 -28 26 -52 69
-64 102 -29 12 13 24 18 32 13 9 -5 10 -2 6 9 -3 10 -2 17 4 17 5 0 2 11 -7
25 -9 14 -23 25 -30 25 -8 0 -14 5 -14 10 0 6 5 10 12 10 7 0 8 3 2 9 -11 11
-114 19 -107 9 2 -5 -1 -8 -6 -8 -6 0 -11 7 -11 15 0 8 -4 15 -9 15 -14 0 12
49 28 52 8 2 16 12 17 23 2 11 6 33 10 49 6 26 5 28 -17 22 -19 -6 -20 -5 -8
3 20 13 74 -1 101 -26 34 -30 60 -93 68 -162 l7 -66 2 55 c4 166 -150 308
-289 266z m-70 -92 c0 -8 -4 -13 -9 -10 -12 8 -34 -21 -26 -34 3 -5 1 -10 -5
-10 -5 0 -20 -15 -31 -32 -17 -28 -19 -29 -13 -8 14 49 52 100 82 109 1 1 2
-6 2 -15z m290 -224 c13 -8 13 -10 -2 -10 -9 0 -20 5 -23 10 -8 13 5 13 25 0z
m-70 -20 c0 -5 -4 -10 -10 -10 -5 0 -10 5 -10 10 0 6 5 10 10 10 6 0 10 -4 10
-10z m60 -10 c0 -5 -4 -10 -10 -10 -5 0 -10 5 -10 10 0 6 5 10 10 10 6 0 10
-4 10 -10z m-86 -239 c25 -10 7 -17 -50 -20 -30 -1 -43 3 -47 14 -5 12 2 15
36 14 23 0 51 -4 61 -8z m-34 -81 c11 -8 7 -9 -15 -4 -37 8 -45 14 -19 14 10
0 26 -5 34 -10z m-269 -131 c-24 -20 -41 -24 -41 -11 0 10 53 42 60 35 3 -2
-6 -13 -19 -24z m474 9 c38 -25 44 -38 19 -38 -22 0 -75 40 -69 51 8 13 11 12
50 -13z m-40 -48 c10 -11 16 -20 13 -20 -3 0 -13 9 -23 20 -10 11 -16 20 -13
20 3 0 13 -9 23 -20z m145 -72 c0 -13 -5 -9 -31 19 l-24 26 27 -19 c15 -10 28
-22 28 -26z m-800 -28 c-6 -11 -13 -20 -16 -20 -2 0 0 9 6 20 6 11 13 20 16
20 2 0 0 -9 -6 -20z m871 -61 c10 -21 19 -42 19 -46 -1 -4 -10 10 -22 32 -11
22 -28 49 -37 60 -15 19 -15 19 2 5 10 -7 27 -31 38 -51z m-731 -95 c0 -11 6
-13 20 -9 23 7 26 -3 6 -30 -15 -21 -71 -29 -84 -11 -19 23 -24 56 -9 56 9 0
17 -6 19 -12 3 -8 9 -4 17 10 13 24 31 21 31 -4z m-24 -74 c14 0 23 -4 20 -9
-4 -5 3 -7 14 -4 12 3 20 0 20 -7 0 -9 -14 -11 -52 -6 -29 3 -54 6 -55 6 -2 0
-3 7 -3 16 0 11 5 14 16 10 9 -3 27 -6 40 -6z"/>
<path d="M650 1160 c0 -13 18 -22 24 -11 3 5 -1 11 -9 15 -8 3 -15 1 -15 -4z"/>
<path d="M830 961 c0 -11 5 -23 10 -26 6 -4 10 5 10 19 0 14 -4 26 -10 26 -5
0 -10 -9 -10 -19z"/>
<path d="M815 911 c-4 -14 -2 -27 5 -35 10 -8 11 -8 6 1 -3 6 -2 13 3 15 4 1
5 12 1 23 -7 19 -7 19 -15 -4z"/>
<path d="M800 860 c0 -6 7 -10 15 -10 8 0 15 2 15 4 0 2 -7 6 -15 10 -8 3 -15
1 -15 -4z"/>
<path d="M772 805 c0 -16 2 -22 5 -12 2 9 2 23 0 30 -3 6 -5 -1 -5 -18z"/>
<path d="M745 689 c-4 -6 -5 -12 -2 -15 2 -3 7 2 10 11 7 17 1 20 -8 4z"/>
<path d="M840 620 c29 -23 84 -44 75 -30 -9 14 71 5 123 -14 23 -8 42 -13 42
-10 0 8 -74 38 -89 35 -7 -1 -10 2 -6 8 9 15 -8 20 -95 25 l-75 5 25 -19z"/>
<path d="M188 623 c7 -3 16 -2 19 1 4 3 -2 6 -13 5 -11 0 -14 -3 -6 -6z"/>
<path d="M87 552 c-19 -21 -22 -32 -7 -32 10 0 34 39 27 46 -2 2 -11 -4 -20
-14z"/>
<path d="M1120 502 c0 -10 22 -32 32 -32 5 0 3 9 -4 20 -13 20 -28 27 -28 12z"/>
<path d="M30 485 c-7 -9 -11 -18 -8 -20 3 -3 11 1 18 10 7 9 11 18 8 20 -3 3
-11 -1 -18 -10z"/>
</g>
</svg>
