<?xml version="1.0" encoding="UTF-8"?>
<svg version="1.1" viewBox="0 0 2048 1258" width="713" height="438" xmlns="http://www.w3.org/2000/svg">
<path transform="translate(0)" d="m0 0h2048v1258h-2048z" fill="#198DCA"/>
<path transform="translate(996,40)" d="m0 0h33l17 2 20 4 20 6 16 6 20 10 18 11 13 10 14 12 9 9v2h2l7 8 10 12 9 15 9 16 11 25 7 25 5 25v44l-3 19-4 18-6 19-9 20-10 19-8 12-8 11-13 15-9 9-8 7-15 12-17 11-16 8-9 4-7 3-11 4-16 5-21 4-20 2h-24l-26-3-22-5-21-7-20-9-17-9-17-12-14-13-8-7-13-13-11-14-7-10-12-22-10-24-6-20-5-23-1-7-1-20v-13l1-17 6-29 9-27 8-18 9-17 10-14 11-13 7-8 18-18 16-12 19-12 25-12 19-7 19-5 18-3z" fill="#198DCA"/>
<path transform="translate(1057,562)" d="m0 0h143l34 2 20 4 18 6 15 7 13 8 14 12 13 17 8 16 5 16 3 15 1 8v31l-4 19-5 13-7 13-7 9-12 12-15 10-20 9-16 5h-2l3 5 7 10 10 16 9 13 13 19 9 13 29 44 14 21 25 38 4 8-1 2-64 1h-33l-7-8-16-28-12-20-17-29-8-13-14-24-12-20-16-27-8-15-2-1-25-1v185l-46 1h-41l-1-412z" fill="#DFC76E"/>
<path transform="translate(790,557)" d="m0 0h35l25 3 23 5 22 8 23 12 11 8 10 9 11 12 10 15 7 15 6 18v7l-14 3-65 16h-6l-2-10-6-15-7-11-8-8-14-8-15-5-15-2h-20l-18 4-16 8-7 6-5 8-4 8-2 7v14l7 14 10 9 17 9 25 9 28 9 24 7 27 10 26 12 15 9 13 10 11 11 10 14 7 14 5 17 2 16v18l-3 22-7 20-9 16-11 14-7 7-13 10-17 10-20 8-23 6-28 4-22 1-31-3-27-5-27-9-16-8-16-10-14-12-9-9-12-17-8-16-6-15-4-14-1-4 9-3 18-5 31-7 24-6 7-1 3 7 6 21 6 9 8 10 7 7 13 8 18 6 17 3h20l17-3 10-4 10-6 4-2 2-4 6-10 4-13v-14l-4-12-5-9-5-5-10-8-16-8-20-8-50-16-29-10-21-9-16-9-15-11-12-12-9-13-7-16-5-21-1-9v-11l3-22 4-15 8-16 9-14 8-9 11-9 13-9 19-10 18-6 21-5z" fill="#DFC76E"/>
<path transform="translate(1236,566)" d="m0 0h10l24 7 16 7 14 9 14 12 13 17 8 16 5 16 3 15 1 8v31l-4 19-5 13-7 13-7 9-12 12-15 10-20 9-16 5h-2l3 5 7 10 10 16 9 13 13 19 9 13 29 44 14 21 25 38 4 8-1 2-64 1h-33l-7-8-16-28-3-5-3-8-12-21-12-19-3-7-2-6-3-6 2-13h1v-6l-1-5v-41l1-5-1-3 1-13-1-6 2-28 2-4 1-9 3-5 1-3 10-6 5-2v-2l4-3v-3l-11 8-9 4-11 3-9 1h-66l-1-3 1-88 1-9h58l19 3 8 2-1-5-2-5-4-2-3-10-1-9 3-7 1-11 1-7 2-2v-9l4-1v-2l6-2z" fill="#B68744"/>
<path transform="translate(1132,469)" d="m0 0h5l1 5h-6v2h-3l-2 6 2 1v10l-4 8v4h2l1 3-5 7-3 2v5l1 2-5 5-8 1-3 1 1 2 5 2 1 3-6 1-10 2-9-4-1 3-15 5-6 5-11 3-4 6v14l1 34v87l-2 13v43l-3 6-3-4-1-9-4-5 1-6 1-5-5-3-1-2h-6l4 8v4h-2l-1 5h-5l-5-1 1 1v6l-4 4v6l5 4v9l2 1-2 2h-5l1 8 5-2-3 4v2h-3l1 4-9 7-4 10h2v2h-5v3l2-1 3 2-1 4-8 6-1-2-5-1-1-9-4-2v-3l-2 1-1 3-8-1-3-2 1-3-3-1-1-6 2-10-8-7 1-2v-8l-7-2v-5l-5 2-5-5-5-1-4-2 1-4 5-1v-2l-5-2-8-4-5-1v-2h-4l-7 1-3-5-4-2v-9l-6 1-10-8-1-2h2l-3-6v-3l-6-2v-2l4-1 5-5 19-4 8-3 5-2 9-1 9-3 9-4h7v-2l13-3h2l1-9-2-11-1-7-2-7-4-10-7-13v-2h-2l-2-5h-2l-3-5-4-5v-2h-2l-7-9-3-4 1-1-2-6 1-1-7-3-2-4 3-6-5-2-9-6v-3l-6-1-2-5 3-5-1-5-4-2-1-6-2-1-6 3-6-2 1-6-3-1-1 2-5-2-6-1 1-5 3-2h3v-2h8v-2l-4-4 1-7-3-1 1-4 4-2v7l7-2h-4l-1-4 1-4 7-1 6 1 3-1 2-3h8l4 1h9l13 4 18 2 3 1 12 1 27 3h22l13-2 14-1 5-2 4-2 4-1 6-3h8l1-2 2 1 1-2 10-5 17-3 14-3z" fill="#3A9ACE"/>
<path transform="translate(790,557)" d="m0 0h35l25 3 23 5 22 8 23 12 11 8 10 9 11 12 10 15 7 15 6 18v7l-14 3-65 16h-6l-2-10-6-15-7-11-8-8-14-8-15-5-15-2h-20l-18 4-16 8-7 6-5 8-4 8-2 7v14l7 14 10 9 17 9 5 2v2l10 3 12 5v2h2v2l6 2 2 5-1 2 1 4-2 16-1 3 5 17v12l-2 1v7l-6 4-14-2-49-16-24-10-18-10-15-11-12-12-9-13-7-16-5-21-1-9v-11l3-22 4-15 8-16 9-14 8-9 11-9 13-9 19-10 18-6 21-5z" fill="#AC7A37"/>
<path transform="translate(730,846)" d="m0 0 5 1 7 25 6 10 9 11 7 7 13 8 14 5v2l24 4 3 1 1 6-2 4v12l1 2 1 9 5 10-4 17-6 5-12 1h-23l-24-5-24-8-16-8-16-10-14-12-9-9-12-17-8-16-6-15-4-14-1-4 9-3 18-5 31-7 24-6z" fill="#AC7A37"/>
<path transform="translate(790,557)" d="m0 0h35l25 3 23 5 22 8 23 12 11 8 10 9 11 12 10 15 7 15 6 18v7l-14 3-65 16h-6l-2-10-6-15-7-11-8-8-14-8-15-5-15-2h-26l3-2 21-2 2-5 1-18-2-10v-7l-1-6 1-9 3-4-2-2-7-3-1-2-23-1z" fill="#DFC76E"/>
<path transform="translate(1145,635)" d="m0 0h58l19 3 15 5 10 7 7 8 5 10 2 9v20l-5 14-7 9-10 7-9 4-11 3-9 1h-66l-1-3 1-88z" fill="#198DCA"/>
<path transform="translate(1250,718)" d="m0 0 1 4-3 3h-2v2l-13 8h-2l-1 6-2 2-1 10-2 3-2 31 1 9-1 8 1 4-1 9v38l1 2v8l-2 3-1 8 5 10 1 5 9 15 13 22 6 11-1 2-8-13-17-29-8-13-14-24-12-20-16-27-8-15-3-3-2-6-9-1-5-3-3-4v-12l2-11 2-3-1-8 3-6 9-3 14-3-34-1v-1l66-1 13-2 12-4 10-6z" fill="#C7AE68"/>
<path transform="translate(983,1023)" d="m0 0h29l21 3 18 5 16 8 10 9 6 10 2 6v13l-3 7h-6l-2-4-1-14-3-8-4-6-11-7-16-6-21-4-12-1h-18l-23 2-25 5-24 8-15 8-10 9-7 9-4 9-1 12 2 10 6 8 10 7 14 5 18 4 30 4 51 5 20 4 10 4 9 7 5 10v16l-5 10-11 11-10 6-13 5-14 3-7 1h-32l-24-4-26-8-6-4-1-1v-5l4-2 21 7 17 4 14 2h32l20-4 13-5 9-6 6-8 2-7-1-10-4-6-8-4-25-5-58-6-24-4-15-4-16-7-11-8-8-11-3-9v-15l4-13 6-8 8-9 15-11 16-8 16-6 22-5 13-2z" fill="#DEC66E"/>
<path transform="translate(1296,589)" d="m0 0 6 2 11 9 12 15 8 14 5 13 5 23 1 8v31l-4 19-5 13-7 13-7 9-12 12-9 2-3-1-3-9-1-5 1-5 1-16v-8l1-1v-12l1-1v-25l1-17v-15l1-5-1-4v-7l1-3 2-16 1-5v-3h2v-5-2l-2-7-6-9z" fill="#AC7A37"/>
<path transform="translate(1e3 35)" d="m0 0h19l23 2 22 4 21 6 16 6 16 8 21 12 16 12 11 9 10 10 7 8 9 10 10 13 13 23 8 17 6 16 6 21 4 21 1 12v25l-2 23-5 26-8 24-12 26-11 18-10 14-11 13-20 20-14 11-10 7-15 9-16 8-20 8-24 7-26 4-13 1h-18l-21-2-25-5-22-7-16-6-16-8-14-8-11-8-13-11-8-8-3-2v-2l-3-1v-2l-4-2-9-10-10-12-10-15-11-21-5-13-4-10-8-29-3-17-1-10v-38l3-20 6-25 7-20 8-18 8-15 14-20 12-14 19-19 11-9 21-14 23-12 19-8 24-7 22-4zm-5 5-22 3-21 5-18 6-20 9-17 9-16 11-14 11-22 22-9 11-11 15-8 14-8 17-8 21-5 17-5 25-1 17v13l1 20 4 22 6 22 8 21 9 19 11 18 10 13 12 13 11 11 8 7 13 11 19 12 23 11 21 8 23 6 21 3 11 1h24l20-2 25-5 10-3 10-4 7-3 10-4 16-8 13-8 11-8 11-9 16-15 10-11 9-12 11-17 12-23 8-19 7-26 3-16 1-9v-44l-5-25-7-25-11-25-11-20-8-12-9-11-7-8h-2l-2-4-10-10-11-9-13-10-15-9-23-12-18-7-26-7-17-3-12-1z" fill="#DAC26D"/>
<path transform="translate(751,691)" d="m0 0 8 10 9 7 15 8 5 2v2l10 3 12 5v2h2v2l6 2 2 5-1 2 1 4-2 16-1 3 5 17v12l-2 1v7l-6 4-14-2-49-16-10-4 2-1 2-4h2l-1-3 2-4 3-8v-9l-1-3 1-4-1-7 1-5 1-9-1-4v-12l2-2-2-12z" fill="#B68744"/>
<path transform="translate(780,558)" d="m0 0h33l4 4 5 2 2 3-3 3-1 10 1 8 1 10 1 7-1 17-2 2 1 2-26 2v2l-15 4-13 7-7 6-3 4 1-5 2-5-4-1-3-8v-11l-4-18v-9l-3-6-2-7-5-4h-8l-3-1 1-3 14-6 26-7z" fill="#B68744"/>
<path transform="translate(1301,866)" d="m0 0h2v2h3l10 16 29 43 12 19 18 27 4 8-1 2h-76v-6l-5-7-2-4-1-9 1-17v-18l-1-4 2-6v-13h2l-1-7 2-10 1-3v-9z" fill="#AC7A37"/>
<path transform="translate(750,886)" d="m0 0 14 14 13 8 14 5v2l24 4 3 1 1 6-2 4v12l1 2 1 9 5 10-4 17-6 5-12 1h-23l-24-5-13-4 4-1 3-5 1-2v-6l2-7v-36l-1-3 1-1-1-12 1-3-1-6z" fill="#B68744"/>
<path transform="translate(1057,562)" d="m0 0h143l34 2 7 1v2l-4 1-3 2h-4v2l-4 1 1 9-2 2-1 7-1 11-3 8 2 11 3 8 4 4 2 5-1 2 5 1-3 1-14-4-15-2-3-2-11-1v-2l-17-2-11-4-2-2v-6l-1-2 2-10v-22l-2-9 5-10-106-1z" fill="#C7AE68"/>
<path transform="translate(788,719)" d="m0 0 5 1 43 14 7 2 1 2 10 4 7 4 11 6-1 8-3 10-1 17 1 15 1 5h1v6l-3 4h-2l-1 2h-3l-17-2-8-3-8-2-25-8 4-1 7 1 5-4v-6l2-4v-9l-5-18 1-2 2-17-1-4 1-3-3-3-4-2v-2h-2v-2l-9-3-13-5z" fill="#C7AE68"/>
<path transform="translate(791,914)" d="m0 0 9 1 12 2 12 1h14l5 2 1-2h11l6 2v2l5 1v5l-1 4v7l4 1 5 10 2 10 1 3-2 6-5 5h-2v2l-7 4-11 4-12 3v2l-22 1-31-3v-1l20-1 9-1 5-4 4-17-5-10-1-9-1-2v-12l2-4v-6l-16-2-11-3z" fill="#C7AE68"/>
<path transform="translate(790,557)" d="m0 0h35l25 3-3 2 8 3 13 5 3 4v10l-3 9-3 6h2l2 10 1 7v14l-6 5-11-3h-7l-3 1-12-3-10-1h-26l3-2 21-2 2-5 1-18-2-10v-7l-1-6 1-9 3-4-2-2-7-3-1-2-23-1z" fill="#C7AE68"/>
<path transform="translate(673,624)" d="m0 0 3 4 1 2 3-3h2v3l4-1 4 1 3 12-1 18h2l1 4-1 9 1 2 3 43 1 1v5h-2l-1 3h-2l-1 8-1-2-6 2-4-3-3 1-1 2-4-2-7-15-5-19-2-14v-11l3-22 4-15z" fill="#976E39"/>
<path transform="translate(686,857)" d="m0 0h5v5l3 5 3 1-1 3-1 13 1 4 1 16 2 5v5l-2 6-3 11-4-1-2 2-3-2h-4l1 2-6 2-12-17-8-16-6-15-4-14-1-4 9-3 18-5z" fill="#976E39"/>
<path transform="translate(1339,920)" d="m0 0 4 4 14 22 18 27 4 8-1 2h-56v-1h11v-4h-2l-1-2-3-1v-2l-5-2-1-9 2-5-1-10 2-13 1-1 1-8 4 1h4l4 1 1 1-1-7z" fill="#976E39"/>
<path transform="translate(1072,1131)" d="m0 0h7l5 5 2 13 13 1 6 4 3 5 1 6-2 13v15l3 6 5 4h6l11-6 8-9 11-18 5-1 1 1v7l-7 13-8 10-8 8-10 5-8 1-9-3-7-6-3-7-1-5v-14l2-18-13-1-1 9-4 9-7 1-2-1v-6l4-12h-7l-5-2-1-2 1-11 5-10z" fill="#C7AE68"/>
<path transform="translate(983,1023)" d="m0 0h29l21 3 18 5 16 8 10 9 6 10 2 6v13l-3 7h-6l-2-4-1-14-3-8-4-6-11-7-16-6-21-4-12-1h-18l-23 2-25 5-13 4-3-1 2-2-5-6 18-6 24-5z" fill="#DBC36D"/>
<path transform="translate(1201,380)" d="m0 0 1 3-4 10-10 13-11 12-16 16-14 11-10 7-15 9-16 8-20 8-24 7-26 4-13 1h-18l-21-2-25-5-22-7-16-6-16-8-14-8-11-8-13-11-7-7 1-3 5 2 14 13 18 12 23 12 21 8 19 6 22 4 19 2h24l20-2 25-5 10-3 10-4 7-3 10-4 16-8 13-8 11-8 11-9 16-15 9-10 9-12z" fill="#DAC26D"/>
<path transform="translate(919,1037)" d="m0 0 5 1 3 5-3 1v2l-16 7-11 7-9 9-7 12-2 9 1 13 4 8 8 7 12 6 10 3 7 3 1 3 2 1 1 5h-7l-18-6-13-7-8-7-6-9-3-9v-15l4-13 6-8 8-9 15-11z" fill="#AA7938"/>
<path transform="translate(831,131)" d="m0 0 1 2-4 8-7 11-10 21-8 21-5 17-5 25-1 17v13l1 20 4 22 6 22 8 21 9 19 11 18 10 13 12 13 9 9-1 3-5-2v-2l-3-1v-2l-4-2-9-10-10-12-10-15-11-21-5-13-4-10-8-29-3-17-1-10v-38l3-20 6-25 7-20 8-18 8-15 5-5z" fill="#9D763F"/>
<path transform="translate(1196,131)" d="m0 0 4 1 10 17 10 19 9 23 6 21 4 21 1 12v25l-2 23-5 26-8 24-12 26-11 18-3 1 3-10 8-14 10-21 6-17 5-19 3-16 1-9v-44l-5-25-7-25-11-25-10-18-2-6z" fill="#A17C43"/>
<path transform="translate(1153,1169)" d="m0 0 4 1v7l-7 13-8 10-8 8-10 5-8 1-4-1v-2l-5-2-5-6 1-4 1-1h5l6 5h6l11-6 8-9 11-18z" fill="#B78A47"/>
<path transform="translate(907,1192)" d="m0 0 9 2 10 4 21 5 14 2v3l-5 5 4 2-12-1-21-5-17-6-5-4v-5z" fill="#C7AE68"/>
<path transform="translate(915,1128)" d="m0 0 14 2 30 4 9 1v1h-7v2h6l-2 5-3 2-15-1-24-4 2-1-1-5-3-1v-3l-6-1z" fill="#C6AD67"/>
<path transform="translate(1329,671)" d="m0 0h2l1 2 2-1 1 9v19l-2 14-3 4-5 2-1-8 1-2h2l1-4h-3l1-13 1-5h2l-3-5 1-10z" fill="#976E39"/>
<path transform="translate(1140,77)" d="m0 0 7 2 13 10 10 9 16 17 12 15-1 2 5 8-1 3-8-12-9-11-6-6v-2h-2l-7-8-13-12-15-11z" fill="#C6AD67"/>
<path transform="translate(952,1027)" d="m0 0h4l1 2 3 2-7 6v1l-23 6-6 1 2-3-5-6 18-6z" fill="#C7AE68"/>
<path transform="translate(814,360)" d="m0 0 3 4 10 18 10 14 12 14 13 13-1 3-5-2v-2l-3-1v-2l-4-2-9-10-10-12-10-15-9-17z" fill="#BB9450"/>
<path transform="translate(1072,1131)" d="m0 0h7l5 5v5l-4 3-1-7-4-1-1 9-1 3h-2v3h5l-4 8h-8l-2-3 1-11 5-10z" fill="#DDC56E"/>
<path transform="translate(1153,1169)" d="m0 0 4 1v7l-7 13-8 10-5 4-1-8 4-7 6-11 5-8z" fill="#AA7A39"/>
<path transform="translate(865,91)" d="m0 0 2 1-1 1 2 2-21 21-9 11-6 8-1-3-6 8v-3l10-14 11-13z" fill="#C6AD67"/>
<path transform="translate(919,1037)" d="m0 0 5 1 3 5-3 1v2l-16 7h-6v-2h-5v-2l15-9z" fill="#B78946"/>
<path transform="translate(1201,380)" d="m0 0 1 3-4 10-10 13-11 12-12 12-5-1 4-5 8-7 12-13 9-12z" fill="#C7AE68"/>
<path transform="translate(1196,131)" d="m0 0 4 1 10 17 10 19 4 11-3 1-2-1-8-18-9-16-2-6z" fill="#BA924F"/>
<path transform="translate(907,1192)" d="m0 0 9 2 8 4 3 2 1 7-16-3-6-4-1-1v-5z" fill="#B68845"/>
<path transform="translate(903,1125)" d="m0 0 8 1 10 4 1 3 2 1 1 5h-7l-15-5-1-2 2-3z" fill="#B68946"/>
<path transform="translate(861,424)" d="m0 0 5 2 14 13 6 4 1 3 4 4h-4l-11-8-13-12-3-4z" fill="#C7AE67"/>
<path transform="translate(1182,662)" d="m0 0 3 1v6l-3 1-1 2h-3l2 5-4 4-5 1-3-7 6-7 7-2z" fill="#3B9BCF"/>
<path transform="translate(1172,799)" d="m0 0h2l5 9 10 19 8 14 10 17-1 2-11-18-16-27-7-14z" fill="#DDC56E"/>
<path transform="translate(859,653)" d="m0 0 9 3 1 4 3 1 3 4 2 8 2 1v5l-5-3-5-10-7-6z" fill="#3B9BCF"/>
<path transform="translate(1074,1164)" d="m0 0h3l-1 9-1 2h2l1-6 2-1 2 1v6l-4 4-7-1v-6z" fill="#DBC36D"/>
<path transform="translate(839,404)" d="m0 0 5 4 5 2 13 13-1 3-5-2v-2l-3-1v-2l-4-2-9-10z" fill="#C09E59"/>
<path transform="translate(1342,704)" d="m0 0h1l-1 11-5 17-3 6-1-3 3-7v-7l3-3v-5l-3-3 2-4z" fill="#9C753E"/>
<path transform="translate(1234,905)" d="m0 0 4 4 12 21 5 9-1 2-8-13-12-20z" fill="#D0B76A"/>
<path transform="translate(1075,1136)" d="m0 0 4 1 1 7-2 2-3 4h-3z" fill="#A1A278"/>
<path transform="translate(831,131)" d="m0 0 1 2-4 8-4 4-4 1 2-5 5-5z" fill="#B28F50"/>
<path transform="translate(1104,1160)" d="m0 0 3 1-1 4-3 9-2-2 1-9z" fill="#B68744"/>
<path transform="translate(1339,718)" d="m0 0h1l-1 7-4 11-2 2 2-9 1-1v-7z" fill="#A07B42"/>
<path transform="translate(907,1192)" d="m0 0 6 1-4 1-1 5 7 4-3 1-6-4-1-1v-5z" fill="#C7AE68"/>
<path transform="translate(1224,889)" d="m0 0h2l8 14-1 3-9-15z" fill="#C9B068"/>
<path transform="translate(885,444)" d="m0 0 5 2 6 4-2 4-4-2-1-4z" fill="#D3BB6B"/>
<path transform="translate(935,491)" d="m0 0h7l3 3-4 2-6-3z" fill="#198DCA"/>
</svg>
